# xmcd
#
# Track frame offsets:
# 150
# 666
# 19469
# 38507
# 57783
# 80125
# 105129
# 118280
# 143312
# 167213
# 183144
# 202735
# 224170
# 242364
# 264108
#
# Disc length: 3635 seconds
#
#
# Revision: 0
# Processed by: cddbd v1.5.2PL0 Copyright (c) Steve Scherf et al.
# Submitted via: FreeRIP 2.51 
#
DISCID=ba0e310f
DTITLE=Nas - Nastradamus
DYEAR=1999
DGENRE=Hip-Hop
TTITLE0=The prediction
TTITLE1=Life we chose
TTITLE2=Nostradamus
TTITLE3=Some of us have angels
TTITLE4=Project windows
TTITLE5=Come get me
TTITLE6=Shoot 'em up
TTITLE7=Last words
TTITLE8=Family
TTITLE9=God love us
TTITLE10=Quiet niggas
TTITLE11=Big girl
TTITLE12=New world
TTITLE13=You owe me
TTITLE14=The outcome
EXTD=
EXTT0=
EXTT1=
EXTT2=
EXTT3=
EXTT4=
EXTT5=
EXTT6=
EXTT7=
EXTT8=
EXTT9=
EXTT10=
EXTT11=
EXTT12=
EXTT13=
EXTT14=
PLAYORDER=
